<svg xmlns="http://www.w3.org/2000/svg" width="40" height="24" viewBox="0 0 40 24">
    <g fill="none" fill-rule="evenodd">
        <g>
            <g transform="translate(-8 -60) translate(8 60)">
                <rect width="40" height="24" fill="#196BB1" rx="6"/>
                <g fill="#FFF" fill-rule="nonzero">
                    <path d="M19.219 4.063H2.674l2.74-2.728c.306-.304.307-.799.003-1.105-.304-.306-.8-.307-1.105-.003L.23 4.29c-.306.305-.307.801 0 1.107L4.312 9.46c.306.304.8.303 1.105-.003.304-.305.303-.8-.003-1.105l-2.74-2.727h16.545c.431 0 .781-.35.781-.781 0-.432-.35-.782-.781-.782z" transform="translate(10 7)"/>
                </g>
            </g>
        </g>
    </g>
</svg>
