<svg xmlns="http://www.w3.org/2000/svg" width="24" height="24" viewBox="0 0 24 24">
    <g fill="none" fill-rule="evenodd">
        <g fill="#196BB1" fill-rule="nonzero">
            <g>
                <g>
                    <g>
                        <path d="M12 0C5.383 0 0 5.383 0 12s5.383 12 12 12 12-5.383 12-12S18.617 0 12 0zm4.707 10.707c-.195.195-.451.293-.707.293-.256 0-.512-.098-.707-.293L13 8.414V18c0 .552-.447 1-1 1-.553 0-1-.448-1-1V8.414l-2.293 2.293c-.391.391-1.023.391-1.414 0-.39-.391-.39-1.023 0-1.414l3.999-3.999c.092-.093.203-.166.326-.217.244-.101.52-.101.764 0 .123.051.234.124.326.217l4 3.999c.39.391.39 1.023-.001 1.414z" transform="translate(-927 -639) translate(390 586) translate(0 31) rotate(180 280.5 23)"/>
                    </g>
                </g>
            </g>
        </g>
    </g>
</svg>
