<svg xmlns="http://www.w3.org/2000/svg" width="20" height="20" viewBox="0 0 20 20">
    <g fill="none" fill-rule="evenodd">
        <g fill="#FFAF35" fill-rule="nonzero">
            <g>
                <g>
                    <g>
                        <path d="M10 0C4.486 0 0 4.486 0 10s4.486 10 10 10 10-4.486 10-10S15.514 0 10 0zm3.922 8.922c-.162.163-.375.245-.589.245-.213 0-.426-.082-.589-.245l-1.91-1.91V15c0 .46-.373.833-.834.833-.46 0-.833-.373-.833-.833V7.012l-1.911 1.91c-.326.326-.853.326-1.178 0-.326-.325-.326-.852 0-1.178L9.41 4.412c.077-.078.17-.139.272-.181.203-.084.433-.084.636 0 .103.042.195.103.272.18l3.333 3.333c.325.326.325.853 0 1.178z" transform="translate(-267 -592) translate(8 538) translate(0 31) rotate(180 139.5 21.5)"/>
                    </g>
                </g>
            </g>
        </g>
    </g>
</svg>
