<svg xmlns="http://www.w3.org/2000/svg" width="20" height="21" viewBox="0 0 20 21">
    <g fill="none" fill-rule="evenodd">
        <g fill="#196BB1" fill-rule="nonzero">
            <g>
                <g>
                    <path d="M15.833 10.019c-.46 0-.833.373-.833.833v6.667c0 .46-.373.833-.833.833H2.5c-.46 0-.833-.374-.833-.833V5.852c0-.459.373-.833.833-.833h6.667c.46 0 .833-.373.833-.833 0-.46-.372-.834-.833-.834H2.5c-1.378 0-2.5 1.122-2.5 2.5V17.52c0 1.378 1.122 2.5 2.5 2.5h11.667c1.378 0 2.5-1.122 2.5-2.5v-6.667c0-.46-.373-.833-.834-.833z" transform="translate(-287 -120) translate(8 120) translate(279)"/>
                    <path d="M7.813 9.26c-.058.058-.097.132-.114.212L7.11 12.42c-.027.137.016.277.114.377.08.079.186.121.295.121.027 0 .054-.002.082-.008l2.946-.59c.081-.016.156-.055.213-.113l6.593-6.594-2.945-2.946L7.813 9.26zM19.39.629c-.812-.813-2.134-.813-2.946 0l-1.153 1.153 2.946 2.946 1.153-1.153c.393-.393.61-.916.61-1.473 0-.556-.217-1.08-.61-1.473z" transform="translate(-287 -120) translate(8 120) translate(279)"/>
                </g>
            </g>
        </g>
    </g>
</svg>
