<svg xmlns="http://www.w3.org/2000/svg" width="23" height="31" viewBox="0 0 23 31">
    <g fill="none" fill-rule="evenodd">
        <g fill="#196BB1" fill-rule="nonzero">
            <g>
                <g>
                    <g>
                        <path d="M3.42 8.215c.513-.085.857-.555.769-1.049-.502-2.8 1.742-5.351 4.675-5.351 2.924 0 5.172 2.539 4.677 5.34-.087.494.258.963.771 1.047.513.085 1-.248 1.088-.742C16.088 3.56 12.963 0 8.864 0 4.77 0 1.629 3.56 2.33 7.475c.089.495.578.825 1.09.74z" transform="translate(-56 -481) translate(0 415) translate(40.5 66) translate(15.5)"/>
                        <path d="M18.894 14.559c-.706-1.335-2.389-1.868-3.77-1.21-.642-1.214-2.111-1.787-3.446-1.34V6.45c0-1.482-1.236-2.72-2.757-2.76-1.593-.043-2.913 1.185-2.913 2.722v13.98l-1.107-1.116C3.838 18.206 2.06 18.13.934 19.109-.254 20.142-.313 21.901.78 23.007l6.365 6.535c.887.911 2.14 1.434 3.438 1.434h7.676c2.598 0 4.713-2.036 4.713-4.538V17c0-2.01-2.203-3.334-4.078-2.441zm2.193 11.88c0 1.5-1.27 2.722-2.828 2.722h-7.676c-.779 0-1.53-.314-2.063-.86l-6.373-6.544c-.365-.368-.347-.955.05-1.301.375-.326.976-.293 1.34.074l2.732 2.754c.586.591 1.624.19 1.624-.626V6.413c0-.51.44-.922.977-.907.509.013.923.437.923.945 0 9.985-.018 5.459-.018 10.852 0 .503.425.912.952.907.525.005.951-.404.951-.907v-2.895c.084-.418.466-.735.925-.735.52 0 .943.407.943.907v2.723c0 .501.422.907.942.907s.943-.406.943-.907V15.79c0-.5.423-.907.942-.907.52 0 .943.407.943.907v1.513c0 .501.422.907.943.907.52 0 .942-.406.942-.907V17c0-.5.423-.907.943-.907s.943.407.943.907v9.438z" transform="translate(-56 -481) translate(0 415) translate(40.5 66) translate(15.5)"/>
                    </g>
                </g>
            </g>
        </g>
    </g>
</svg>
