<svg xmlns="http://www.w3.org/2000/svg" width="93" height="149" viewBox="0 0 93 149">
    <g fill="none" fill-rule="evenodd">
        <g fill-rule="nonzero">
            <g transform="translate(-113 -39) translate(113.504 39)">
                <path fill="#E6E6E6" d="M74.496 35.408h-.815V12.98c0-3.442-1.362-6.744-3.787-9.178C67.469 1.368 64.181 0 60.752 0H13.425C6.285 0 .496 5.812.496 12.98v123.04c0 7.168 5.789 12.98 12.929 12.98h47.327c7.14 0 12.929-5.812 12.929-12.98V51.372h.815V35.408z"/>
                <path fill="#FFF" d="M55.631 3c.578 1.418.413 3.03-.44 4.3-.854 1.271-2.285 2.034-3.815 2.034H24.208c-1.53 0-2.96-.763-3.815-2.033-.853-1.27-1.019-2.883-.44-4.301H14.17C11.605 3 9.144 4.02 7.33 5.834 5.515 7.65 4.496 10.11 4.496 12.677v122.646c0 2.567 1.02 5.028 2.834 6.843C9.144 143.98 11.605 145 14.17 145h47.652c2.565 0 5.026-1.02 6.84-2.834 1.815-1.815 2.834-4.276 2.834-6.843V12.677c0-2.567-1.02-5.028-2.833-6.843C66.848 4.02 64.387 3 61.822 3h-6.19z"/>
                <g transform="translate(18.496 20)">
                    <path fill="#3F3D56" d="M20 31c-8.284 0-15-6.716-15-15C5 7.716 11.716 1 20 1c8.284 0 15 6.716 15 15-.01 8.28-6.72 14.99-15 15zm0-29.589C11.943 1.411 5.411 7.943 5.411 16S11.943 30.589 20 30.589 34.589 24.057 34.589 16C34.579 7.946 28.054 1.42 20 1.411z"/>
                    <circle cx="12.5" cy="12.5" r="12.5" fill="#8DF8FA"/>
                </g>
                <path fill="#3F3D56" d="M35.996 137c-4.142 0-7.5-3.358-7.5-7.5 0-4.142 3.358-7.5 7.5-7.5 4.142 0 7.5 3.358 7.5 7.5-.004 4.14-3.36 7.495-7.5 7.5zm0-14.595c-3.918 0-7.094 3.177-7.094 7.095 0 3.918 3.176 7.095 7.094 7.095s7.095-3.177 7.095-7.095c-.005-3.916-3.178-7.09-7.095-7.095z"/>
                <g>
                    <path fill="#838383" d="M36 36H5V5h31v31zm-30.586-.414h30.172V5.414H5.414v30.172z" transform="translate(55.496 56)"/>
                    <path fill="#FBB796" d="M0 0H27V27H0z" transform="translate(55.496 56)"/>
                </g>
                <g>
                    <path fill="#3F3D56" d="M17 19H0V2h17v17zM.42 18.58h16.16V2.42H.42v16.16z" transform="translate(9.496 89)"/>
                    <path fill="#C2C2C2" d="M5 0H20V15H5z" transform="translate(9.496 89) rotate(-180 12.5 7.5)"/>
                </g>
                <circle cx="31.996" cy="127.5" r="6.5" fill="#000"/>
            </g>
        </g>
    </g>
</svg>
