<svg xmlns="http://www.w3.org/2000/svg" xmlns:xlink="http://www.w3.org/1999/xlink" width="94" height="65" viewBox="0 0 94 65">
    <defs>
        <path id="3kmlsagoea" d="M21.986 0C34.132 0 43.98 9.85 43.98 22h-1.154c-.496 0-.911-.388-.933-.884-.216-4.992-2.263-9.654-5.817-13.21-3.763-3.764-8.767-5.838-14.09-5.838-5.341 0-10.485 2.163-14.226 5.977-3.63 3.702-5.648 8.574-5.698 13.76-.05 5.343 2.058 10.51 5.836 14.289 3.553 3.555 8.213 5.601 13.202 5.818.497.022.887.436.887.934V44C10.028 44 .298 34.453 0 22.563v-1.126C.3 9.557 10.04 0 21.986 0zm0 4.965c9.405 0 17.03 7.627 17.03 17.035h-1.162c-.494 0-.903-.385-.931-.878-.211-3.668-1.74-7.086-4.357-9.705-2.862-2.863-6.68-4.423-10.733-4.383-3.837.038-7.536 1.563-10.285 4.243-2.963 2.889-4.576 6.785-4.523 10.924.05 3.838 1.588 7.533 4.274 10.274 2.632 2.685 6.092 4.253 9.808 4.466.494.029.879.438.879.933v1.16c-9.405 0-17.03-7.626-17.03-17.034 0-9.4 7.634-17.035 17.03-17.035zm-.172 4.976C28.551 9.848 34.042 15.282 34.042 22h-1.173c-.49 0-.89-.379-.932-.867-.456-5.281-5.037-9.4-10.494-9.11-5.064.27-9.161 4.368-9.43 9.434-.292 5.459 3.827 10.041 9.106 10.497.488.042.867.443.867.933v1.173c-6.716 0-12.149-5.493-12.055-12.232.09-6.495 5.39-11.796 11.883-11.887zM56.24 23.865c.67 0 1.285.115 1.843.344.558.23 1.037.55 1.437.962.4.413.71.903.93 1.472.221.568.331 1.192.331 1.871 0 .667-.102 1.284-.306 1.853-.204.568-.496 1.06-.877 1.474-.381.415-.846.74-1.393.975-.548.235-1.167.353-1.858.353-.754 0-1.407-.122-1.959-.365-.551-.244-1.01-.605-1.377-1.084l.837-.881c.046-.046.094-.079.144-.097.05-.02.1-.028.15-.028.062 0 .122.013.18.04.06.027.113.062.163.103.125.113.248.205.369.278.12.073.25.132.387.175.137.044.284.075.44.094.156.019.332.028.528.028.287 0 .56-.048.818-.144.259-.095.492-.237.7-.425.208-.187.385-.418.53-.693.147-.275.249-.591.307-.95H54.69v-1.512h3.86c-.062-.337-.161-.636-.296-.896-.136-.26-.302-.48-.5-.66-.198-.179-.424-.314-.678-.406-.254-.091-.529-.137-.824-.137-.333 0-.603.034-.809.103-.206.068-.379.144-.518.225-.14.081-.259.156-.356.225-.098.068-.204.103-.316.103-.112 0-.2-.024-.262-.072-.063-.048-.117-.101-.163-.16l-.712-.955c.17-.175.366-.338.584-.488.219-.15.46-.278.722-.384.262-.106.545-.19.85-.25.303-.06.626-.09.967-.09zm10.238.1L70 33.07h-1.636c-.17 0-.31-.037-.42-.11l-.024-.018c-.112-.085-.198-.195-.256-.328l-.537-1.587h-3.46l-.538 1.587c-.046.117-.128.222-.246.316-.12.093-.266.14-.44.14h-1.65l3.523-9.104h2.161zm-17.585 0c.642 0 1.192.077 1.653.228.46.153.839.362 1.136.628.298.267.518.582.66.944.14.362.212.754.212 1.175 0 .454-.073.87-.219 1.25-.146.378-.368.703-.668.974-.3.27-.68.482-1.14.634-.46.152-1.005.228-1.634.228h-1.099v3.043h-2.111v-9.104h3.21zm-10.808 0v5.093c0 .237-.007.488-.02.753-.012.264-.04.546-.087.846.096-.262.2-.507.313-.734.112-.227.222-.426.33-.597l2.768-4.73c.046-.074.1-.15.165-.224.065-.075.137-.143.216-.204.079-.06.164-.109.256-.146.091-.038.187-.057.287-.057h1.593v9.104h-2.124v-5.098c0-.238.008-.489.022-.753.013-.232.036-.477.07-.735l.015-.112-.037.1c-.085.228-.177.442-.276.64-.112.228-.223.426-.33.597l-2.768 4.73c-.046.075-.1.15-.165.225-.065.075-.137.143-.216.203-.079.06-.164.11-.256.147-.092.037-.187.056-.287.056H35.96v-9.104h2.124zm-12.52 0c.091 0 .171.003.24.007.069.004.13.016.184.037.054.021.103.053.147.097.044.044.086.105.128.184l2.342 4.618c.084.158.164.323.24.493.078.171.152.346.223.525.07-.183.144-.362.221-.537.077-.175.16-.342.247-.5l2.336-4.599c.042-.079.085-.14.128-.184.044-.044.093-.076.147-.097.054-.02.116-.033.184-.037.069-.004.15-.007.24-.007h1.612v9.104h-1.861v-5.236c0-.12.003-.252.01-.394.006-.141.017-.285.034-.43l-2.418 4.68c-.075.145-.176.255-.303.33-.127.075-.271.113-.434.113h-.287c-.162 0-.307-.038-.434-.113-.127-.075-.228-.185-.303-.33l-2.417-4.693c.012.15.022.297.03.44.01.144.013.276.013.397v5.236h-1.861v-9.104h1.612zM65.39 25.84c-.062.254-.129.49-.2.706-.07.217-.137.404-.2.562l-.836 2.48h2.492l-.843-2.492c-.063-.158-.13-.345-.2-.56-.071-.214-.142-.446-.213-.696zM21.721 15.214c3.87-.147 7.054 2.948 7.054 6.786H27.58c-.458 0-.862-.325-.937-.778-.39-2.342-2.508-4.107-4.994-3.933-2.326.163-4.21 2.047-4.373 4.374-.173 2.487 1.59 4.606 3.932 4.996.453.075.778.478.778.937v1.195c-3.837 0-6.931-3.184-6.784-7.056.134-3.52 3-6.387 6.52-6.521zm27.171 10.332h-1.099v2.887h1.1c.549 0 .945-.131 1.186-.394.242-.262.362-.629.362-1.1 0-.208-.03-.397-.093-.568-.063-.17-.157-.318-.284-.44-.127-.123-.288-.218-.481-.285-.194-.066-.424-.1-.69-.1z"/>
    </defs>
    <g fill="none" fill-rule="evenodd">
        <g>
            <g>
                <g transform="translate(-11 -18) translate(11 18)">
                    <use fill="#000" xlink:href="#3kmlsagoea"/>
                </g>
                <text fill="#000" font-family="LucidaGrande, Lucida Grande" font-size="8" letter-spacing="-.057" transform="translate(-11 -18) translate(11 18)">
                    <tspan x="23.362" y="42.247">Р</tspan> <tspan x="27.727" y="42.247" letter-spacing="-.04">о</tspan> <tspan x="32.6" y="42.247" letter-spacing="-.094">с</tspan> <tspan x="36.604" y="42.247" letter-spacing=".025">с</tspan> <tspan x="40.727" y="42.247" letter-spacing=".014">ийский</tspan>
                </text>
                <text fill="#000" font-family="LucidaGrande, Lucida Grande" font-size="8" letter-spacing=".012" transform="translate(-11 -18) translate(11 18)">
                    <tspan x="23.362" y="52.247">т</tspan> <tspan x="27.327" y="52.247" letter-spacing=".066">е</tspan> <tspan x="31.85" y="52.247" letter-spacing=".104">х</tspan> <tspan x="36.86" y="52.247" letter-spacing=".048">н</tspan> <tspan x="41.92" y="52.247">оло</tspan> <tspan x="56.483" y="52.247" letter-spacing=".116">г</tspan> <tspan x="60.552" y="52.247" letter-spacing=".05">и</tspan> <tspan x="65.614" y="52.247" letter-spacing=".057">ч</tspan> <tspan x="69.863" y="52.247" letter-spacing=".037">е</tspan> <tspan x="74.357" y="52.247" letter-spacing=".083">с</tspan> <tspan x="78.538" y="52.247" letter-spacing=".079">к</tspan> <tspan x="83.113" y="52.247" letter-spacing=".074">и</tspan> <tspan x="88.199" y="52.247">й</tspan>
                </text>
                <text fill="#000" font-family="LucidaGrande, Lucida Grande" font-size="8" letter-spacing=".014" transform="translate(-11 -18) translate(11 18)">
                    <tspan x="23.362" y="62.247">уни</tspan> <tspan x="37.706" y="62.247" letter-spacing="-.058">в</tspan> <tspan x="41.847" y="62.247" letter-spacing="-.095">е</tspan> <tspan x="46.208" y="62.247" letter-spacing="-.054">р</tspan> <tspan x="51.19" y="62.247">с</tspan> <tspan x="55.302" y="62.247" letter-spacing=".057">и</tspan> <tspan x="60.371" y="62.247" letter-spacing="-.07">т</tspan> <tspan x="64.253" y="62.247" letter-spacing="-.05">е</tspan> <tspan x="68.661" y="62.247">т</tspan>
                </text>
            </g>
        </g>
    </g>
</svg>
