<svg xmlns="http://www.w3.org/2000/svg" width="8" height="14" viewBox="0 0 8 14">
    <g fill="none" fill-rule="evenodd">
        <g fill="#196BB1" fill-rule="nonzero">
            <g>
                <g>
                    <path d="M7.81 6.616L.997.158C.773-.053.41-.052.188.16-.034.372-.034.715.19.927L6.6 7l-6.41 6.073c-.223.212-.224.555-.001.768.112.106.258.16.405.16.146 0 .291-.054.403-.16L7.81 7.385c.107-.101.168-.24.168-.384 0-.144-.06-.282-.168-.384z" transform="translate(-284 -474) translate(8 448) translate(276 26)"/>
                </g>
            </g>
        </g>
    </g>
</svg>
