<svg xmlns="http://www.w3.org/2000/svg" width="20" height="20" viewBox="0 0 20 20">
    <g fill="none" fill-rule="evenodd">
        <g fill="#196BB1" fill-rule="nonzero">
            <g>
                <path d="M10 0C4.486 0 0 4.486 0 10s4.486 10 10 10 10-4.486 10-10S15.514 0 10 0zm1.667 16.25c0 .23-.187.417-.417.417h-2.5c-.23 0-.417-.187-.417-.417V10h-.416c-.23 0-.417-.186-.417-.417V7.917c0-.23.186-.417.417-.417h3.333c.23 0 .417.186.417.417v8.333zM10 6.667c-.92 0-1.667-.748-1.667-1.667 0-.92.748-1.667 1.667-1.667.92 0 1.667.748 1.667 1.667 0 .92-.748 1.667-1.667 1.667z" transform="translate(-285 -19) translate(285 19)"/>
            </g>
        </g>
    </g>
</svg>
