<svg xmlns="http://www.w3.org/2000/svg" width="231" height="171" viewBox="0 0 231 171">
    <g fill="none" fill-rule="evenodd">
        <g fill-rule="nonzero">
            <g transform="translate(-44 -70) translate(44.898 70.617)">
                <path fill="#EFEDED" d="M135.278 28.31v84.306c0 2.087-1.695 3.78-3.785 3.78H9.833c-.708 0-1.387-.282-1.887-.781-.5-.5-.782-1.177-.782-1.884V38.722c0-9.472 7.691-17.151 17.178-17.151h104.186c1.79 0 3.507.71 4.773 1.974 1.266 1.264 1.977 2.978 1.977 4.765z"/>
                <path fill="#2F2E41" d="M89.883 96.639c.01 6.85-1.531 13.61-4.505 19.756H9.825c-.705 0-1.382-.285-1.881-.793-.5-.508-.78-1.196-.78-1.914v-38.44C16.78 57.242 37.18 48.17 56.7 53.218c19.522 5.049 33.187 22.93 33.183 43.42z"/>
                <path fill="#3F3D56" d="M135.278 112.538c0 2.116-1.71 3.83-3.819 3.83l-122.15.027c-1.475 0-3.154-1.227-3.154-2.707 0-19.16 59.13-35.53 76.02-41.876 19.653-7.36 41.762.019 53.103 17.722v23.004z"/>
                <circle cx="115.103" cy="47.799" r="11.096" fill="#FF6584"/>
                <path fill="#196BB1" d="M56.594 49.756c0 21.728-12.646 29.315-28.246 29.315-15.6 0-28.245-7.587-28.245-29.315S28.348.386 28.348.386s28.246 27.642 28.246 49.37z"/>
                <path fill="#3F3D56" d="M27.849 76.258L28.145 58.194 40.454 35.846 28.191 55.36 28.324 47.238 36.807 31.069 28.36 45.088 28.36 45.088 28.599 30.479 37.683 17.607 28.636 28.182 28.786 1.395 27.847 36.856 27.924 35.393 18.689 21.364 27.776 38.202 26.915 54.517 26.89 54.084 16.243 39.319 26.858 55.614 26.75 57.654 26.731 57.685 26.74 57.853 24.556 99.246 27.473 99.246 27.823 77.865 38.412 61.611z"/>
                <path fill="#196BB1" d="M104.006 40.638c0 17.27-10.388 23.301-23.202 23.301-12.814 0-23.201-6.03-23.201-23.301 0-17.271 23.201-39.243 23.201-39.243s23.202 21.972 23.202 39.243z"/>
                <path fill="#3F3D56" d="M79.905 61.357L80.139 46.645 89.883 28.444 80.176 44.337 80.281 37.722 86.997 24.554 80.309 35.971 80.309 35.971 80.498 24.074 87.69 13.59 80.528 22.203 80.646 0.386 79.903 29.267 79.964 28.076 72.653 16.649 79.847 30.363 79.166 43.651 79.145 43.298 70.717 31.273 79.12 44.544 79.035 46.206 79.019 46.231 79.026 46.367 77.298 80.079 79.607 80.079 79.884 62.666 88.267 49.428z"/>
                <path fill="#196BB1" d="M151.418 64.294c0 11.7-7 15.785-15.636 15.785-8.635 0-15.635-4.085-15.635-15.785s15.635-26.583 15.635-26.583 15.636 14.884 15.636 26.583z"/>
                <path fill="#3F3D56" d="M135.512 77.844L135.672 68.16 142.34 56.179 135.698 66.641 135.77 62.286 140.365 53.619 135.789 61.134 135.789 61.134 135.918 53.303 140.839 46.402 135.939 52.071 136.02 37.711 135.511 56.721 135.553 55.937 130.55 48.416 135.472 57.442 135.006 66.189 134.992 65.957 129.225 58.042 134.975 66.777 134.917 67.87 134.906 67.887 134.911 67.977 133.728 90.167 135.309 90.167 135.498 78.705 141.234 69.992z"/>
                <path fill="#196BB1" d="M37.05 86.296c-.77 1.028-1.772 1.004-2.674.531-.902-.472-1.365-1.214-.593-2.242.771-1.027 3.386-1.48 3.386-1.48s.653 2.163-.118 3.191zM15.866 89.323c-.771 1.027-1.772 1.003-2.674.53-.903-.472-1.365-1.214-.593-2.241.771-1.028 3.386-1.48 3.386-1.48s.653 2.163-.119 3.19zM91.884 83.053c.149 1.389-.697 1.955-1.804 2.056-1.107.1-2.056-.303-2.205-1.692-.15-1.389 1.665-3.338 1.665-3.338s2.195 1.585 2.344 2.974zM67.314 68.138c-.772 1.028-1.773 1.004-2.675.531-.902-.472-1.364-1.214-.593-2.242.771-1.027 3.387-1.48 3.387-1.48s.652 2.164-.12 3.191zM123.805 84.279c-.771 1.027-1.772 1.003-2.675.53-.902-.472-1.364-1.214-.593-2.241.772-1.028 3.387-1.48 3.387-1.48s.652 2.163-.119 3.19z"/>
                <path fill="#EFEDED" d="M221.024 102.762c0 35.927-16.465 64.27-36.741 65.052-26.442 1.02-61-25.1-36.742-65.052 18.694-30.785 16.45-65.051 36.742-65.051 20.291 0 36.74 29.124 36.74 65.051z"/>
                <ellipse cx="174.62" cy="166.329" fill="#3F3D56" rx="32.281" ry="3.531"/>
                <path fill="#196BB1" d="M201.84 124.412c.15 1.39-.696 1.956-1.804 2.056-1.107.1-2.056-.303-2.205-1.691-.15-1.39 1.666-3.338 1.666-3.338s2.194 1.585 2.343 2.973zM189.375 119.586c-.771 1.027-1.772 1.003-2.674.53-.903-.472-1.365-1.214-.594-2.241.772-1.028 3.387-1.48 3.387-1.48s.653 2.163-.119 3.19z"/>
                <path fill="#FFB9B9" d="M188.411 149.703s1.537 6.33 3.93 7.694c2.395 1.365-5.842 3.951-5.842 3.951s-3.585 2.104-4.516 2.865c-.931.76-4.921 2.388-4.264 1.18.658-1.21 1.814-3.508 3.638-5.418 1.825-1.91 4.224-5.328 2.134-7.99-2.09-2.663 4.92-2.282 4.92-2.282z"/>
                <path fill="#FF6584" d="M180.673 68.278l-.837-.293s-2.15-.293-4.122 2.166-6.482 9.924-6.482 9.924l-1.673 3.864 5.915.175 4.45-9.601 2.749-6.235z"/>
                <path fill="#000" d="M180.673 68.278l-.837-.293s-2.15-.293-4.122 2.166-6.482 9.924-6.482 9.924l-1.673 3.864 5.915.175 4.45-9.601 2.749-6.235z" opacity=".1"/>
                <path fill="#2F2E41" d="M179.62 127.492s3.14.717 2.612 3.216c-.528 2.498 3.278 5.742 3.639 6.288.36.546.889.775.555 1.608-.333.833 7.75 12.577 6.14 13.64-1.612 1.062-14.668 5.225-15.835 4.393-1.166-.833-2.11-28.083-2.11-28.083l5-1.062z"/>
                <path fill="#000" d="M179.62 127.492s3.14.717 2.612 3.216c-.528 2.498 3.278 5.742 3.639 6.288.36.546.889.775.555 1.608-.333.833 7.75 12.577 6.14 13.64-1.612 1.062-14.668 5.225-15.835 4.393-1.166-.833-2.11-28.083-2.11-28.083l5-1.062z" opacity=".1"/>
                <path fill="#FFB9B9" d="M171.594 155.697s-1.945 7.088-.639 9.731-6.902.748-6.902.748-4.07.142-5.237.39c-1.167.25-5.334-.298-4.167-1.138 1.166-.84 3.305-2.487 5.806-3.389 2.5-.901 6.25-2.984 5.86-6.746-.388-3.762 5.279.404 5.279.404z"/>
                <path fill="#2F2E41" d="M167.675 91.35c1.117-.797 2.464-1.212 3.837-1.181 2.222.086 9.494 1.816 9.292 2.162-.2.305-.422.594-.664.866 0 0 .462 2.105.26 2.307-.202.201 3.953 4.96 1.529 15.168-2.424 10.208-2.164 17.274-2.164 17.274s.98 29.933-1.818 30.538c-2.799.606-13.822.202-14.34-.98-.52-1.182 1.586-37.892 1.586-37.892s.23-18.456.78-20.706c.547-2.249 1.702-7.555 1.702-7.555z"/>
                <circle cx="179.664" cy="58.895" r="7.061" fill="#FFB9B9"/>
                <path fill="#FFB9B9" d="M178.398 63.892s4.463 4.184-1.049 7.422c-3.88 2.28 9.376-1.777 9.376-1.777s-2.755-6.734-2.336-8.281c.42-1.547-5.991 2.636-5.991 2.636z"/>
                <path fill="#FF6584" d="M180.066 69.912s5.98-2.693 6.963-1.73c.982.964 5.23 4.933.607 11.963-4.623 7.03-5.518 12.302-6.299 12.898-.78.595-1.27-.766-1.27-.766s-2.254-2.012-3.728-2.012c-1.473 0-7.771.68-7.771.68l1.762-6.86s-.867-5.414 2.08-8.107c2.947-2.693 6.183-7.115 6.183-7.115l1.669-.3-1.102 1.377s-.163.425.906-.028z"/>
                <path fill="#196BB1" d="M195.647 116.328c-12.13-4.36-13.732-12.98-10.483-21.736 3.249-8.756 10.118-14.33 22.25-9.97 12.13 4.36 21.68 25.76 21.68 25.76s-21.316 10.307-33.447 5.946z"/>
                <path fill="#3F3D56" d="M188.176 94.466L198.035 98.198 207.856 109.233 199.582 98.783 204.015 100.461 211.205 108.218 205.189 100.905 205.189 100.905 213.162 103.923 218.422 111.351 214.416 104.398 229.094 109.776 209.81 102.258 210.598 102.588 220.14 100.4 209.086 101.953 200.299 98.264 200.542 98.336 210.767 95.534 199.708 98.016 198.609 97.555 198.596 97.538 198.503 97.51 176.21 88.149 175.629 89.717 187.299 94.134 194.116 103.04z"/>
                <path fill="#FFB9B9" d="M167.002 84.709s-2.59 3.562-.873 4.897c1.717 1.336 5.326-.95 5.326-.95s8.324 5.908 8.208 2.435c-.117-3.473-6.083-5.878-6.083-5.878l-4.016.119.61-2.048-1.687-.178-1.485 1.603z"/>
                <path fill="#000" d="M167.002 84.709s-2.59 3.562-.873 4.897c1.717 1.336 5.326-.95 5.326-.95s8.324 5.908 8.208 2.435c-.117-3.473-6.083-5.878-6.083-5.878l-4.016.119.61-2.048-1.687-.178-1.485 1.603z" opacity=".1"/>
                <path fill="#FFB9B9" d="M182.69 78.156s-14.888 12.416-15.842 8.057c-.62-2.832-.143-9.807.267-14.343.292-3.303 1.655-6.387 3.847-8.708.893-.941 1.722-1.532 2.138-1.092 1.166 1.233-2.729 6.165-2.729 6.165s-.636 10.007.636 11.154c0 0 4.607-4.815 5.562-4.744.955.07 6.121 3.51 6.121 3.51z"/>
                <path fill="#2F2E41" d="M194.239 64.102c-1.272-1.886-2.322-4.92-3.455-7.593-.368-.866-.703-1.744-1.032-2.625-.662-1.776-3.544-4.068-7.32-4.068-4.314 0-7.812 2.14-7.812 3.935 0 1.485 2.392 2.736 5.659 3.125-1.148 2.525-1.84 5.326-1.84 7.226 0 4.3 3.537 2.481 7.9 2.481s10.314 1.1 7.9-2.48z"/>
                <path fill="#FF6584" d="M187.063 69.463s3.032 7.005-3.791 8.599c0 0-1.335-1.676-3.518-1.95-2.184-.275-4.125-2.336-4.125-2.336s4.458-5.687 7.946-5.797c3.488-.11 3.488 1.484 3.488 1.484z"/>
            </g>
        </g>
    </g>
</svg>
