<svg xmlns="http://www.w3.org/2000/svg" width="25" height="31" viewBox="0 0 25 31">
    <g fill="none" fill-rule="evenodd">
        <g fill="#196BB1" fill-rule="nonzero">
            <g>
                <g>
                    <g>
                        <path d="M24.101 0c-.139 0-.275.039-.4.114l-6.764 4.092L9.29.093C9.276.087 9.262.086 9.249.08 9.214.064 9.179.051 9.143.04 9.108.03 9.072.02 9.035.013c-.072-.007-.145-.007-.218 0C8.781.02 8.745.03 8.71.04c-.035.01-.07.024-.105.04-.013.006-.028.007-.04.013L.53 4.413c-.322.173-.53.56-.53.987v23.756c0 .365.153.706.406.905.254.2.573.23.85.082l7.67-4.125 7.671 4.125c.014.007.028 0 .041.01.216.117.465.11.676-.018.014-.008.03 0 .045-.012l7.14-4.32c.303-.183.494-.557.494-.966V1.08c0-.596-.399-1.08-.892-1.08zM8.034 24.135l-6.249 3.36V6.101l6.249-3.36v21.393zm8.033 3.36l-6.248-3.36V2.742l6.248 3.36v21.392zm7.141-3.326l-5.356 3.24V6.067l5.356-3.24V24.17z" transform="translate(-232 -481) translate(0 415) translate(209.5 66) translate(22.5)"/>
                    </g>
                </g>
            </g>
        </g>
    </g>
</svg>
