<svg xmlns="http://www.w3.org/2000/svg" width="15" height="20" viewBox="0 0 15 20">
    <g fill="none" fill-rule="evenodd">
        <g fill="#196BB1" fill-rule="nonzero">
            <g>
                <g>
                    <g>
                        <path d="M13.125 7.5H12.5V5c0-2.757-2.242-5-5-5s-5 2.243-5 5v2.5h-.625C.842 7.5 0 8.34 0 9.375v8.75C0 19.159.842 20 1.875 20h11.25C14.158 20 15 19.16 15 18.125v-8.75c0-1.034-.842-1.875-1.875-1.875zM4.167 5c0-1.838 1.495-3.333 3.333-3.333S10.833 3.162 10.833 5v2.5H4.167V5zm4.166 8.935v1.898c0 .46-.372.834-.833.834-.46 0-.833-.374-.833-.834v-1.898c-.496-.29-.834-.82-.834-1.435 0-.92.748-1.667 1.667-1.667.92 0 1.667.748 1.667 1.667 0 .614-.338 1.146-.834 1.435z" transform="translate(-42 -351) translate(0 130) translate(31.5 221) translate(10.5)"/>
                    </g>
                </g>
            </g>
        </g>
    </g>
</svg>
