<svg xmlns="http://www.w3.org/2000/svg" width="30" height="30" viewBox="0 0 30 30">
    <g fill="none" fill-rule="evenodd">
        <g fill="#000" fill-rule="nonzero">
            <g>
                <g>
                    <path d="M15 0C6.716 0 0 6.716 0 15c0 8.284 6.716 15 15 15 8.284 0 15-6.716 15-15C29.991 6.72 23.28.009 15 0zm6.317 15.478c-.104.208-.273.377-.48.481v.005l-8.572 4.286c-.53.265-1.173.05-1.438-.48-.075-.15-.114-.316-.113-.484v-8.572c0-.591.48-1.071 1.071-1.072.167 0 .33.039.48.113l8.571 4.286c.53.264.745.907.481 1.437z" transform="translate(-20 -317) translate(10 307) translate(10 10)"/>
                </g>
            </g>
        </g>
    </g>
</svg>
