<svg xmlns="http://www.w3.org/2000/svg" width="40" height="40" viewBox="0 0 40 40">
    <g fill="none" fill-rule="evenodd">
        <g fill="#FFF" fill-rule="nonzero">
            <g>
                <g>
                    <g>
                        <path d="M36.43 0h-6.362c-.685 0-1.241.556-1.241 1.241 0 .686.556 1.242 1.241 1.242h6.363c.599 0 1.086.487 1.086 1.086v6.363c0 .685.556 1.241 1.242 1.241.685 0 1.241-.556 1.241-1.241V3.569C40 1.601 38.399 0 36.43 0zM1.241 11.173c.686 0 1.242-.556 1.242-1.241V3.569c0-.599.487-1.086 1.086-1.086h6.363c.685 0 1.241-.556 1.241-1.242C11.173.556 10.617 0 9.932 0H3.569C1.601 0 0 1.601 0 3.57v6.362c0 .685.556 1.241 1.241 1.241zM9.932 37.517H3.569c-.599 0-1.086-.487-1.086-1.086v-6.363c0-.685-.556-1.241-1.242-1.241-.685 0-1.241.556-1.241 1.241v6.363C0 38.399 1.601 40 3.57 40h6.362c.685 0 1.241-.556 1.241-1.241 0-.686-.556-1.242-1.241-1.242zM38.759 28.827c-.686 0-1.242.556-1.242 1.241v6.363c0 .599-.487 1.086-1.086 1.086h-6.363c-.685 0-1.241.556-1.241 1.242 0 .685.556 1.241 1.241 1.241h6.363C38.399 40 40 38.399 40 36.43v-6.362c0-.685-.556-1.241-1.241-1.241zM25.34 8.81H14.66c-5.85 0-5.85 0-5.85 5.85v10.68c0 5.85 0 5.85 5.85 5.85h10.68c5.85 0 5.85 0 5.85-5.85V14.66c0-5.85 0-5.85-5.85-5.85z" transform="translate(-140 -430) translate(0 415) translate(125) translate(15 15)"/>
                    </g>
                </g>
            </g>
        </g>
    </g>
</svg>
