<svg width="183" height="169" xmlns="http://www.w3.org/2000/svg">

 <g>
  <title>background</title>
  <rect fill="none" id="canvas_background" height="171" width="185" y="-1" x="-1"/>
 </g>
 <g>
  <title>Layer 1</title>
  <g id="svg_1" fill-rule="evenodd" fill="none">
   <g id="svg_2" fill-rule="nonzero">
    <g id="svg_3" transform="translate(73,69) ">
     <path id="svg_4" opacity="0.202" d="m-30.364,88.847c0.42,-2.488 2.031,-4.098 3.702,-5.14c2.311,-1.44 4.943,-1.983 7.48,-2.12c2.925,-0.158 5.848,0.24 8.751,0.663c2.867,0.416 5.734,0.789 8.613,1.016c11.268,0.884 22.604,0.042 33.617,-2.496c2.718,-0.627 5.42,-1.363 8.106,-2.207c2.545,-0.75 5.033,-1.68 7.445,-2.783c3.193,-1.533 8.385,-4.516 7.962,-10.04c-0.225,-2.93 -1.95,-5.269 -3.69,-6.899c-2.103,-1.97 -4.538,-3.267 -6.922,-4.526c-11.09,-5.857 -22.203,-11.645 -33.304,-17.466c-2.59,-1.359 -5.2,-2.681 -7.714,-4.274c-2.354,-1.49 -4.697,-3.222 -6.591,-5.616c-1.655,-2.091 -3.134,-4.899 -3.082,-8.037c0.044,-2.603 1.228,-4.811 2.679,-6.462c3.59,-4.087 8.671,-5.744 13.263,-6.612c5.704,-1.078 11.491,-1.072 17.2,-2.113c4.609,-0.841 9.534,-2.464 13.282,-6.267c1.586,-1.547 2.707,-3.507 3.238,-5.658c0.479,-2.252 0.246,-4.598 -0.666,-6.713c-1.015,-2.425 -2.635,-4.357 -4.338,-5.94c-1.956,-1.791 -4.175,-3.274 -6.58,-4.395c-5.063,-2.413 -10.386,-3.669 -15.572,-5.52c-2.543,-0.908 -5.112,-1.904 -7.474,-3.463c-2,-1.322 -4.18,-3.102 -5.293,-5.75c-2.297,-5.465 3.182,-8.722 6.287,-9.956c2.11,-0.8 4.283,-1.422 6.497,-1.86c0.469,-0.1 0.27,-1.035 -0.196,-0.935c-2.33,0.455 -4.614,1.122 -6.823,1.993c-1.872,0.778 -3.804,1.8 -5.275,3.559c-1.354,1.606 -1.962,3.712 -1.674,5.792c0.39,2.622 2.083,4.643 3.673,6.106c2.103,1.935 4.5,3.199 6.932,4.229c2.56,1.085 5.174,1.93 7.788,2.76c5.222,1.657 10.68,3.134 15.394,6.66c3.298,2.467 7.778,7.092 6.681,12.825c-0.487,2.545 -1.966,4.535 -3.561,5.998c-1.875,1.668 -4.036,2.982 -6.379,3.879c-10.448,4.204 -21.946,1.198 -32.124,6.908c-3.46,1.942 -7.664,5.477 -7.698,11.04c-0.018,2.889 1.14,5.54 2.572,7.634c1.715,2.509 3.936,4.364 6.196,5.914c2.38,1.573 4.85,3.004 7.398,4.284c2.785,1.462 5.57,2.923 8.355,4.381l16.904,8.865l8.398,4.404c2.564,1.344 5.193,2.634 7.523,4.607c1.909,1.616 4.163,4.266 3.968,7.558c-0.154,2.613 -1.89,4.5 -3.477,5.76c-2.055,1.634 -4.363,2.69 -6.66,3.568c-2.648,1.012 -5.34,1.852 -8.038,2.607c-5.526,1.545 -11.165,2.648 -16.865,3.301c-5.686,0.655 -11.415,0.868 -17.134,0.639c-2.89,-0.116 -5.774,-0.348 -8.655,-0.694c-2.97,-0.357 -5.926,-0.908 -8.903,-1.153c-2.693,-0.22 -5.411,-0.17 -8.063,0.541c-2.214,0.594 -4.553,1.651 -6.234,3.715c-1.239,1.575 -1.86,3.55 -1.745,5.55c0.114,1.997 -0.02,3.356 0.826,-1.66l0,-0.001z" fill="#3F3D56"/>
     <path id="svg_5" d="m-24.652,98.834l84.417,0l0,1l-84.417,0l0,-1z" fill="#3F3D56"/>
     <circle id="svg_6" fill="#FF6584" r="5.515" cy="65.82" cx="53.002"/>
     <circle id="svg_7" fill="#FF6584" r="5.515" cy="-11.907" cx="42.941"/>
     <path id="svg_8" d="m30.472,-68.77l-15.312,6.658c-1.408,0.614 -2.054,2.252 -1.443,3.662l4.755,10.938c0.614,1.408 2.252,2.053 3.661,1.442l15.313,-6.657c1.408,-0.614 2.054,-2.252 1.443,-3.661l-4.755,-10.938c-0.614,-1.409 -2.252,-2.054 -3.662,-1.443l0,-0.001zm0.634,1.46c0.092,-0.04 0.188,-0.067 0.287,-0.082l-5.178,9.767l-10.633,-2.91c0.067,-0.046 0.137,-0.086 0.212,-0.118l15.312,-6.657zm5.706,13.125l-15.312,6.656c-0.604,0.262 -1.306,-0.015 -1.569,-0.618l-4.712,-10.84l11.192,3.063c0.359,0.098 0.738,-0.066 0.912,-0.395l5.419,-10.223l4.69,10.787c0.261,0.604 -0.015,1.306 -0.619,1.57l-0.001,0z" fill="#196BB1"/>
     <circle id="svg_9" fill="#196BB1" r="13.943" cy="12.162" cx="13.297"/>
     <path id="svg_10" d="m11.1,99.006l-3.845,0c-0.935,-0.001 -1.692,-0.759 -1.693,-1.694l0,-32.047c0,-0.935 0.758,-1.693 1.693,-1.694l3.845,0c0.935,0.001 1.693,0.759 1.694,1.694l0,32.047c-0.001,0.935 -0.759,1.693 -1.694,1.694zm7.606,0l-3.846,0c-0.935,-0.001 -1.692,-0.759 -1.693,-1.694l0,-32.047c0.001,-0.935 0.758,-1.693 1.693,-1.694l3.846,0c0.934,0.001 1.692,0.759 1.693,1.694l0,32.047c-0.001,0.935 -0.759,1.693 -1.693,1.694z" fill="#2F2E41"/>
     <path id="svg_11" d="m34.64,61.913c-0.17,0 -0.337,-0.025 -0.499,-0.075c-0.43,-0.13 -0.79,-0.427 -0.999,-0.825l-15.023,-28.308c-0.21,-0.397 -0.255,-0.861 -0.123,-1.29c0.132,-0.43 0.428,-0.79 0.825,-1l3.396,-1.802c0.397,-0.211 0.861,-0.256 1.29,-0.124c0.43,0.132 0.79,0.429 1,0.825l15.023,28.309c0.21,0.397 0.255,0.86 0.123,1.29c-0.131,0.43 -0.428,0.789 -0.825,1l-3.396,1.802c-0.244,0.13 -0.516,0.198 -0.792,0.198zm-31.274,-26.093c-0.203,0 -0.405,-0.036 -0.595,-0.108l-29.98,-11.326c-0.42,-0.159 -0.76,-0.478 -0.944,-0.887c-0.185,-0.41 -0.199,-0.876 -0.04,-1.295l1.357,-3.598c0.333,-0.873 1.31,-1.313 2.184,-0.984l29.98,11.324c0.873,0.332 1.313,1.307 0.986,2.181l-1.359,3.598c-0.25,0.66 -0.883,1.095 -1.589,1.095z" fill="#196BB1"/>
     <rect id="svg_12" rx="6" fill="#2F2E41" y="28.527" x="2.84" height="40.244" width="20.597"/>
     <path id="svg_13" d="m23.596,-1.492c0.82,1.798 1.603,3.97 0.721,5.894c-0.323,0.777 -0.93,1.401 -1.697,1.747c-0.909,0.363 -1.9,0.156 -2.742,-0.282c-1.773,-0.923 -2.916,-2.638 -4.499,-3.813c-0.72,-0.56 -1.573,-0.928 -2.476,-1.067c-1.04,-0.135 -2.073,0.11 -3.09,0.3c-1.083,0.201 -2.201,0.307 -3.203,-0.241c-0.88,-0.515 -1.57,-1.303 -1.964,-2.245c-0.206,-0.458 -0.88,-0.06 -0.675,0.395c0.852,1.89 2.613,3.178 4.73,3.03c1.119,-0.08 2.2,-0.441 3.322,-0.493c1.023,-0.034 2.027,0.287 2.84,0.908c1.739,1.24 2.918,3.142 4.912,4.042c0.941,0.425 2.019,0.602 3.01,0.236c0.856,-0.333 1.57,-0.954 2.016,-1.755c1.31,-2.254 0.469,-4.858 -0.53,-7.05c-0.209,-0.458 -0.882,-0.06 -0.675,0.394zm-8.757,18.31c-0.862,-0.025 -1.934,-0.055 -2.76,-0.658c-0.497,-0.378 -0.802,-0.957 -0.833,-1.582c-0.03,-0.444 0.15,-0.877 0.485,-1.17c0.43,-0.365 1.06,-0.45 1.74,-0.25l-0.704,-5.14l0.517,-0.07l0.826,6.04l-0.43,-0.197c-0.5,-0.229 -1.187,-0.346 -1.613,0.015c-0.212,0.19 -0.323,0.47 -0.3,0.754c0.025,0.464 0.252,0.895 0.62,1.18c0.643,0.469 1.497,0.53 2.466,0.557l-0.014,0.52l0,0.001zm-7.431,-8.357l2.806,0l0,1l-2.806,0l0,-1zm8.858,0l2.806,0l0,1l-2.806,0l0,-1zm-13.449,27.129l-12.321,-3.757c-0.798,-0.243 -1.264,-1.07 -1.06,-1.88l1.44,-5.667c0.114,-0.453 0.426,-0.831 0.85,-1.03c0.423,-0.2 0.913,-0.198 1.335,0.003l12.22,5.808c0.807,0.306 1.214,1.207 0.911,2.014l-1.359,3.598c-0.305,0.808 -1.208,1.215 -2.016,0.911zm15.523,-3.206l5.285,11.747c0.342,0.761 1.222,1.12 1.998,0.813l5.44,-2.143c0.435,-0.171 0.771,-0.528 0.915,-0.973c0.144,-0.445 0.08,-0.932 -0.172,-1.325l-7.307,-11.389c-0.405,-0.76 -1.35,-1.05 -2.113,-0.648l-3.397,1.803c-0.762,0.405 -1.053,1.352 -0.648,2.115l-0.001,0z" fill="#2F2E41"/>
     <g id="svg_14">
      <path id="svg_15" d="m-34.729,-6.792l-36.22,-7.813l-0.471,-0.101c-0.49,-0.107 -0.996,0.077 -1.304,0.47c-0.308,0.395 -0.363,0.931 -0.14,1.38l14.38,29.205c0.19,0.38 0.551,0.646 0.971,0.71c0.422,0.066 0.849,-0.08 1.141,-0.39l9.989,-10.533c0.144,-0.155 0.346,-0.243 0.557,-0.243c0.29,-0.004 0.559,0.152 0.698,0.406l2.046,3.784c0.27,0.52 0.857,0.789 1.426,0.653l0.01,-0.002c0.576,-0.122 0.993,-0.622 1.01,-1.21l0.41,-8.736c0.005,-0.11 0.032,-0.216 0.08,-0.314c0.051,-0.097 0.12,-0.183 0.205,-0.254l5.763,-4.73c0.386,-0.317 0.557,-0.828 0.44,-1.314c-0.117,-0.486 -0.502,-0.862 -0.99,-0.969l-0.001,0.001zm0.223,1.879l-5.763,4.731c-0.075,0.06 -0.143,0.13 -0.203,0.205l-30.543,-13.85c-0.027,-0.013 -0.055,-0.023 -0.084,-0.03c-0.243,-0.062 -0.496,0.057 -0.603,0.284c-0.106,0.227 -0.035,0.498 0.168,0.645l25.114,18.447c-0.128,0.066 -0.243,0.154 -0.34,0.259l-9.99,10.532c-0.176,0.185 -0.431,0.273 -0.684,0.235c-0.252,-0.038 -0.47,-0.198 -0.583,-0.427l-14.381,-29.204c-0.132,-0.27 -0.098,-0.59 0.086,-0.826c0.185,-0.236 0.488,-0.346 0.78,-0.284l0.482,0.104l36.21,7.81c0.294,0.064 0.525,0.29 0.596,0.582c0.07,0.291 -0.032,0.598 -0.263,0.789l0.001,-0.002z" fill="#196BB1"/>
      <path id="svg_16" d="m-34.729,-6.792l-36.22,-7.813l-0.471,-0.101c-0.49,-0.107 -0.996,0.077 -1.304,0.47c-0.308,0.395 -0.363,0.931 -0.14,1.38l14.38,29.205c0.19,0.38 0.551,0.646 0.971,0.71c0.422,0.066 0.849,-0.08 1.141,-0.39l9.989,-10.533c0.144,-0.155 0.346,-0.243 0.557,-0.243c0.29,-0.004 0.559,0.152 0.698,0.406l2.046,3.784c0.27,0.52 0.857,0.789 1.426,0.653l0.01,-0.002c0.576,-0.122 0.993,-0.622 1.01,-1.21l0.41,-8.736c0.005,-0.11 0.032,-0.216 0.08,-0.314c0.051,-0.097 0.12,-0.183 0.205,-0.254l5.763,-4.73c0.386,-0.317 0.557,-0.828 0.44,-1.314c-0.117,-0.486 -0.502,-0.862 -0.99,-0.969l-0.001,0.001zm0.223,1.879l-5.763,4.731c-0.075,0.06 -0.143,0.13 -0.203,0.205c-0.054,0.067 -0.1,0.14 -0.138,0.218c-0.04,0.078 -0.072,0.162 -0.095,0.247l0,0.003c-0.023,0.089 -0.037,0.18 -0.04,0.273l-0.41,8.736c-0.007,0.353 -0.259,0.655 -0.605,0.726l-0.005,0.001c-0.342,0.085 -0.697,-0.076 -0.858,-0.39l-2.046,-3.786c-0.215,-0.396 -0.619,-0.653 -1.068,-0.68l-0.003,0.001c-0.03,0 -0.06,-0.002 -0.088,-0.001c-0.207,0 -0.41,0.05 -0.592,0.147c-0.128,0.066 -0.243,0.154 -0.34,0.259l-9.99,10.533c-0.176,0.185 -0.431,0.273 -0.684,0.235c-0.252,-0.038 -0.47,-0.198 -0.583,-0.427l-14.381,-29.204c-0.132,-0.27 -0.098,-0.59 0.086,-0.826c0.185,-0.236 0.488,-0.346 0.78,-0.284l0.482,0.104l36.21,7.81c0.294,0.064 0.525,0.29 0.596,0.582c0.07,0.291 -0.032,0.598 -0.263,0.789l0.001,-0.002z" fill="#3F3D56"/>
      <path id="svg_17" d="m-40.357,0.076l-0.215,0.474l-0.133,-0.058l-0.001,-0.003l-30.518,-13.838l25.483,18.723l0.003,0l0.067,0.052l-0.307,0.42l-0.443,-0.326l-25.113,-18.448c-0.203,-0.147 -0.274,-0.418 -0.168,-0.645c0.107,-0.227 0.36,-0.346 0.603,-0.284c0.029,0.007 0.057,0.017 0.084,0.03l30.542,13.851l0.116,0.052z" fill="#3F3D56"/>
     </g>
    </g>
   </g>
  </g>
 </g>
</svg>