<svg xmlns="http://www.w3.org/2000/svg" width="62" height="62" viewBox="0 0 62 62">
    <g fill="none" fill-rule="evenodd">
        <g>
            <g>
                <g transform="translate(-129 -339) translate(0 268) translate(129 71)">
                    <circle cx="31" cy="31" r="31" fill="#196BB1"/>
                    <g fill-rule="nonzero">
                        <path fill="#84C6FF" d="M15.753 20.56l-.603-5.535c-.044-.402-.362-.719-.763-.763l-5.536-.603c-.383-.042-.747.176-.892.533l-3.113 7.687-.019.051c-.274.823-.213 1.571.172 2.106.335.464.872.72 1.513.72.304 0 .63-.058.97-.171l.05-.019 7.688-3.113c.357-.145.575-.51.533-.892z" transform="translate(15.333 16.333)"/>
                        <path fill="#0D8CF7" d="M15.15 15.025c-.022-.2-.112-.38-.248-.515l-9.73 9.73c.334.333.8.515 1.34.515.304 0 .63-.057.97-.17l.05-.02 7.688-3.112c.357-.145.575-.51.533-.892l-.603-5.536z" transform="translate(15.333 16.333)"/>
                        <path fill="#FEF4F5" d="M29.07.72C28.734.254 28.197 0 27.555 0c-.303 0-.63.057-.97.17L1.592 8.503C.27 8.943.03 9.712.002 10.132c-.025.42.119 1.213 1.376 1.814l8.93 4.264c1.043.499 2.395 1.85 2.893 2.893l4.265 8.93c.573 1.2 1.328 1.379 1.727 1.379.357 0 1.238-.155 1.717-1.592L29.24 2.825c.275-.823.214-1.571-.172-2.106z" transform="translate(15.333 16.333)"/>
                        <path fill="#D0D0D0" d="M28.896.516L11.959 17.453c.53.53.993 1.129 1.242 1.65l4.265 8.93c.573 1.2 1.328 1.379 1.727 1.379.357 0 1.238-.155 1.717-1.592L29.24 2.825c.275-.823.214-1.571-.172-2.106-.053-.073-.111-.14-.173-.203z" transform="translate(15.333 16.333)"/>
                        <path fill="#84C6FF" d="M12.57 17.704c-.22 0-.441-.084-.61-.253-.336-.336-.336-.882 0-1.218L27.677.516c.337-.337.883-.337 1.22 0 .335.336.335.882 0 1.218L13.178 17.451c-.168.169-.389.253-.61.253z" transform="translate(15.333 16.333)"/>
                        <path fill="#0D8CF7" d="M11.96 17.451c.169.169.39.253.61.253.22 0 .44-.084.609-.253L28.896 1.734c.336-.336.336-.882 0-1.218L11.96 17.45z" transform="translate(15.333 16.333)"/>
                    </g>
                </g>
            </g>
        </g>
    </g>
</svg>
