<svg xmlns="http://www.w3.org/2000/svg" width="220" height="137" viewBox="0 0 220 137">
    <g fill="none" fill-rule="evenodd">
        <g>
            <g transform="translate(-50 -122) translate(50 122)">
                <circle cx="57.384" cy="41.701" r="41.701" fill="#FF6584" fill-rule="nonzero"/>
                <path fill="#2F2E41" fill-rule="nonzero" d="M0 9.98c0 15.17 9.565 27.444 21.385 27.444"/>
                <path fill="#196BB1" fill-rule="nonzero" d="M21.029 37.424c0-15.366 10.68-27.8 23.88-27.8M7.841 11.406c0 14.381 6.058 26.018 13.544 26.018"/>
                <path fill="#2F2E41" fill-rule="nonzero" d="M21.385 37.424c0-19.7 12.275-35.642 27.445-35.642"/>
                <path fill="#A8A8A8" fill-rule="nonzero" d="M16.752 37.63s2.97-.093 3.864-.741c.895-.648 4.568-1.421 4.79-.382.222 1.038 4.462 5.166 1.11 5.193-3.353.028-7.79-.53-8.683-1.083-.893-.553-1.081-2.987-1.081-2.987z"/>
                <path fill="#000" fill-rule="nonzero" d="M26.576 41.353c-3.352.026-7.79-.51-8.683-1.043-.68-.405-.951-1.859-1.042-2.53l-.1.005s.189 2.341 1.082 2.873 5.33 1.069 8.684 1.043c.967-.008 1.302-.345 1.283-.843-.134.3-.503.489-1.224.495z" opacity=".2"/>
                <ellipse cx="39.028" cy="83.047" fill="#3F3D56" fill-rule="nonzero" rx="36.533" ry="4.99"/>
                <ellipse cx="38.85" cy="83.225" fill="#000" fill-rule="nonzero" opacity=".1" rx="30.652" ry="4.099"/>
                <ellipse cx="163.776" cy="129.381" fill="#3F3D56" fill-rule="nonzero" rx="55.424" ry="7.485"/>
                <ellipse cx="60.77" cy="126.352" fill="#3F3D56" fill-rule="nonzero" rx="33.326" ry="4.455"/>
                <path stroke="#2F2E41" stroke-width="2" d="M90.531 122.613c17.632 4.465 51.524-5.822 55.246-17.468M60.592 50.93s25.443-7.031 27.01 15.627c1.565 22.66-20.943 29.105-3.328 33.598M35.999 105.452s7.7-2.095 8.174 4.655c.473 6.75-6.338 8.67-1.007 10.007"/>
                <path fill="#2F2E41" fill-rule="nonzero" d="M152.537 110.37l-1.54 9.826s-7.582 4.025-2.251 4.143c5.332.118 30.449 0 30.449 0s4.857 0-2.844-4.262l-1.54-10.299-22.274.592z"/>
                <path fill="#000" fill-rule="nonzero" d="M147.672 124.368c1.21-1.087 3.324-2.219 3.324-2.219l1.54-9.918 22.275.022 1.54 9.777c1.796 1.003 2.909 1.772 3.56 2.362.989-.228 2.07-1.074-3.56-4.218l-1.54-10.396-22.275.598-1.54 9.917s-6.372 3.415-3.324 4.075z" opacity=".1"/>
                <rect width="100.511" height="69.859" x="113.342" y="41.701" fill="#2F2E41" fill-rule="nonzero" rx="4"/>
                <path fill="#3F3D56" fill-rule="nonzero" d="M116.55 45.266H210.289V97.66H116.55z"/>
                <circle cx="163.42" cy="43.662" r="1" fill="#F2F2F2" fill-rule="nonzero"/>
                <path fill="#2F2E41" fill-rule="nonzero" d="M213.854 101.937v6.107c0 .933-.373 1.827-1.035 2.487-.663.659-1.562 1.03-2.5 1.03h-93.443c-.937 0-1.836-.371-2.499-1.03-.662-.66-1.035-1.554-1.035-2.487v-6.107h100.512zM189.617 130.714L189.617 131.876 125.817 131.876 125.817 130.947 125.905 130.714 127.478 126.53 188.312 126.53zM214.177 129.63c-.116.507-.551 1.042-1.536 1.548-3.533 1.816-10.717-.484-10.717-.484s-5.535-.969-5.535-3.511c.155-.11.317-.209.485-.297 1.486-.808 6.41-2.801 15.143.085.644.207 1.218.594 1.66 1.118.354.426.632.966.5 1.54z"/>
                <path fill="#000" fill-rule="nonzero" d="M214.176 129.6c-4.356 1.69-8.24 1.817-12.225-.987-2.01-1.414-3.835-1.764-5.206-1.737 1.497-.802 6.458-2.781 15.256.084.648.206 1.227.59 1.672 1.11.357.422.636.959.503 1.53z" opacity=".1"/>
                <ellipse cx="208.686" cy="128.134" fill="#F2F2F2" fill-rule="nonzero" rx="1.604" ry="1"/>
                <circle cx="163.42" cy="106.749" r="2.317" fill="#F2F2F2" fill-rule="nonzero"/>
                <path fill="#000" fill-rule="nonzero" d="M189.617 130.807L189.617 131.876 125.817 131.876 125.817 131.021 125.905 130.807z" opacity=".1"/>
                <path fill="#2F2E41" fill-rule="nonzero" d="M21.385 31.009H62.016999999999996V78.41300000000001H21.385z"/>
                <path fill="#3F3D56" fill-rule="nonzero" d="M17.108 26.375H65.938V43.126999999999995H17.108zM17.108 46.335H65.938V63.087H17.108zM17.108 66.295H65.938V83.047H17.108z"/>
                <path fill="#196BB1" fill-rule="nonzero" d="M53.107 29.227H56.315V32.435H53.107z" opacity=".4"/>
                <path fill="#196BB1" fill-rule="nonzero" d="M57.74 29.227H60.948V32.435H57.74z" opacity=".8"/>
                <path fill="#196BB1" fill-rule="nonzero" d="M62.018 29.227H65.226V32.435H62.018z"/>
                <path fill="#196BB1" fill-rule="nonzero" d="M53.107 49.186H56.315V52.394H53.107z" opacity=".4"/>
                <path fill="#196BB1" fill-rule="nonzero" d="M57.74 49.186H60.948V52.394H57.74z" opacity=".8"/>
                <path fill="#196BB1" fill-rule="nonzero" d="M62.018 49.186H65.226V52.394H62.018z"/>
                <path fill="#196BB1" fill-rule="nonzero" d="M53.107 68.79H56.315V71.998H53.107z" opacity=".4"/>
                <path fill="#196BB1" fill-rule="nonzero" d="M57.74 68.79H60.948V71.998H57.74z" opacity=".8"/>
                <path fill="#196BB1" fill-rule="nonzero" d="M62.018 68.79H65.226V71.998H62.018z"/>
                <circle cx="61.839" cy="105.323" r="15.504" fill="#2F2E41" fill-rule="nonzero"/>
                <path fill="#2F2E41" fill-rule="nonzero" d="M54.889 117.263H59.522000000000006V125.81700000000001H54.889zM64.513 117.263H69.146V125.81700000000001H64.513z"/>
                <ellipse cx="58.81" cy="126.174" fill="#2F2E41" fill-rule="nonzero" rx="3.921" ry="1.426"/>
                <ellipse cx="68.077" cy="125.817" fill="#2F2E41" fill-rule="nonzero" rx="3.921" ry="1.426"/>
                <circle cx="62.374" cy="101.58" r="5.346" fill="#FFF" fill-rule="nonzero"/>
                <circle cx="62.374" cy="101.58" r="1.782" fill="#3F3D56" fill-rule="nonzero"/>
                <path fill="#196BB1" fill-rule="nonzero" d="M46.92 91.015c-1.249-5.606 2.744-11.27 8.917-12.652 6.174-1.382 12.192 2.043 13.44 7.649 1.25 5.606-2.842 7.673-9.016 9.055-6.174 1.382-12.092 1.554-13.34-4.052z"/>
                <ellipse cx="75.511" cy="100.025" fill="#2F2E41" fill-rule="nonzero" rx="7.731" ry="2.428" transform="rotate(-23.171 75.511 100.025)"/>
                <ellipse cx="46.546" cy="110.402" fill="#2F2E41" fill-rule="nonzero" rx="7.731" ry="2.428" transform="rotate(-23.171 46.546 110.402)"/>
                <path fill="#FFF" fill-rule="nonzero" d="M70.928 109.804c0 1.55-3.923 4.608-8.277 4.608-4.354 0-8.475-2.858-8.475-4.407 0-1.55 4.12-1.202 8.475-1.202 4.354 0 8.277-.547 8.277 1.001z"/>
            </g>
        </g>
    </g>
</svg>
