<?xml version="1.0" encoding="UTF-8"?>
<svg width="20px" height="20px" viewBox="0 0 20 20" version="1.1" xmlns="http://www.w3.org/2000/svg" xmlns:xlink="http://www.w3.org/1999/xlink">
    <title>E37278C0-D199-4921-9D93-D4ACCA3A5D74</title>
    <g id="Page-1" stroke="none" stroke-width="1" fill="none" fill-rule="evenodd">
        <g id="Mobile-Copy-15" transform="translate(-267.000000, -668.000000)" fill="#57B119" fill-rule="nonzero">
            <g id="Group-2" transform="translate(8.000000, 538.000000)">
                <g id="Group-3-Copy-7" transform="translate(0.000000, 107.000000)">
                    <g id="upload" transform="translate(259.000000, 23.000000)">
                        <path d="M10,0 C4.48582031,0 0,4.48582031 0,10 C0,15.5141797 4.48582031,20 10,20 C15.5141797,20 20,15.5141797 20,10 C20,4.48582031 15.5141797,0 10,0 Z M13.9225,8.9225 C13.76,9.085 13.5466797,9.16667969 13.3333203,9.16667969 C13.12,9.16667969 12.9066406,9.085 12.7441406,8.9225 L10.8333203,7.01167969 L10.8333203,15 C10.8333203,15.46 10.4608203,15.8333203 10,15.8333203 C9.53917969,15.8333203 9.16667969,15.46 9.16667969,15 L9.16667969,7.01167969 L7.25585938,8.9225 C6.93003906,9.24832031 6.40335937,9.24832031 6.07753906,8.9225 C5.75171875,8.59667969 5.75171875,8.07 6.07753906,7.74417969 L9.41003906,4.41167969 C9.48671875,4.33417969 9.57921875,4.27335938 9.68171875,4.23085938 C9.88503906,4.14667969 10.1150391,4.14667969 10.3183984,4.23085938 C10.4208984,4.27335938 10.5133984,4.33417969 10.5900781,4.41167969 L13.9225781,7.74417969 C14.2483203,8.07 14.2483203,8.59667969 13.9225,8.9225 Z" id="Shape"></path>
                    </g>
                </g>
            </g>
        </g>
    </g>
</svg>