<svg xmlns="http://www.w3.org/2000/svg" width="20" height="29" viewBox="0 0 20 29">
    <g fill="none" fill-rule="evenodd">
        <g fill="#000" fill-rule="nonzero">
            <g>
                <g>
                    <g>
                        <path d="M18.342 13.288c-.247 0-.447-.185-.447-.413v-1.23c0-.228.2-.413.447-.413s.447.185.447.414v1.229c0 .228-.2.413-.447.413z" transform="translate(-14 -295) translate(11 215) translate(3 80) translate(.07)"/>
                        <path d="M17 28.96H1.79C.8 28.96 0 28.219 0 27.305V1.655C0 .74.801 0 1.79 0H17c.988 0 1.79.74 1.79 1.655V8.75c0 .228-.201.414-.448.414s-.447-.186-.447-.414V1.655c0-.457-.401-.828-.895-.828H1.79c-.495 0-.895.37-.895.828v25.65c0 .457.4.827.894.827H17c.495 0 .896-.37.896-.827V19.87c0-.228.2-.413.447-.413s.447.185.447.413v7.435c0 .914-.8 1.655-1.79 1.655z" transform="translate(-14 -295) translate(11 215) translate(3 80) translate(.07)"/>
                        <path d="M18.342 17.388c-.247 0-.447-.185-.447-.414v-1.203c0-.229.2-.414.447-.414s.447.185.447.414v1.203c0 .229-.2.414-.447.414zM18.342 4.828H.447C.2 4.828 0 4.643 0 4.414c0-.228.2-.413.447-.413h17.895c.247 0 .447.185.447.413 0 .229-.2.414-.447.414zM18.342 24.06H.447C.2 24.06 0 23.874 0 23.646c0-.229.2-.414.447-.414h17.895c.247 0 .447.185.447.414 0 .228-.2.414-.447.414zM11.366 2.896H7.424c-.248 0-.448-.185-.448-.414 0-.228.2-.413.448-.413h3.942c.247 0 .447.185.447.413 0 .229-.2.414-.447.414zM10.206 27.37H8.584c-.76 0-1.377-.57-1.377-1.274 0-.703.616-1.273 1.377-1.273h1.622c.76 0 1.377.57 1.377 1.273s-.617 1.273-1.377 1.273zm-1.622-1.72c-.267 0-.483.2-.483.446s.216.446.483.446h1.622c.266 0 .482-.2.482-.446s-.216-.446-.482-.446H8.584zM7.263 19.372H4.065c-.247 0-.447-.185-.447-.413V16c0-.228.2-.413.447-.413s.448.185.448.413v2.544h2.75c.247 0 .447.185.447.414 0 .228-.2.413-.447.413zM4.065 12.472c-.247 0-.447-.185-.447-.413V9.102c0-.229.2-.414.447-.414h3.198c.247 0 .447.185.447.414 0 .228-.2.413-.447.413h-2.75v2.544c0 .228-.2.413-.448.413zM14.724 12.472c-.247 0-.447-.185-.447-.413V9.515h-2.75c-.248 0-.448-.185-.448-.413 0-.229.2-.414.447-.414h3.198c.247 0 .447.185.447.414v2.957c0 .228-.2.413-.447.413zM14.724 19.372h-3.198c-.247 0-.447-.185-.447-.413 0-.229.2-.414.447-.414h2.75V16c0-.228.201-.413.448-.413s.447.185.447.413v2.958c0 .228-.2.413-.447.413z" transform="translate(-14 -295) translate(11 215) translate(3 80) translate(.07)"/>
                    </g>
                </g>
            </g>
        </g>
    </g>
</svg>
