<svg xmlns="http://www.w3.org/2000/svg" width="126" height="173" viewBox="0 0 126 173">
    <g fill="none" fill-rule="evenodd">
        <g>
            <g>
                <g>
                    <path fill="#FDD0BA" d="M62.393 0H10.417C4.673 0 0 4.673 0 10.417v113.441c0 5.744 4.673 10.418 10.417 10.418h51.976c5.745 0 10.417-4.674 10.417-10.418V10.417C72.81 4.673 68.138 0 62.393 0" transform="translate(-93 -28) translate(93 28.193) translate(28.534 16)"/>
                    <path fill="#FFF" d="M62.394 1.949H10.417c-4.67 0-8.468 3.798-8.468 8.468v113.441c0 4.67 3.798 8.468 8.468 8.468h51.977c4.669 0 8.468-3.798 8.468-8.468V10.417c0-4.67-3.8-8.468-8.468-8.468" transform="translate(-93 -28) translate(93 28.193) translate(28.534 16)"/>
                    <path fill="#AF9182" d="M42.033 122.062H30.41c-1.375 0-2.5 1.183-2.5 2.628 0 1.446 1.125 2.629 2.5 2.629h11.622c1.375 0 2.5-1.183 2.5-2.629 0-1.445-1.125-2.628-2.5-2.628" transform="translate(-93 -28) translate(93 28.193) translate(28.534 16)"/>
                    <path fill="#FDD0BA" d="M42.088 122.062H30.723c-1.345 0-2.446 1.1-2.446 2.445 0 1.345 1.1 2.445 2.446 2.445h11.365c1.345 0 2.445-1.1 2.445-2.445 0-1.345-1.1-2.445-2.445-2.445" transform="translate(-93 -28) translate(93 28.193) translate(28.534 16)"/>
                    <path fill="#121514" d="M34.434 39.038L35.748 39.038 35.748 37.724 34.434 37.724zM51.517 40.352v5.256h-6.57v-6.57h6.57v1.314zm-7.884 6.57h9.198v-9.198h-9.198v9.198zM22.608 41.666L22.608 44.294 26.55 44.294 26.55 40.352 22.608 40.352 22.608 41.666M30.492 44.294L33.12 44.294 33.12 42.98 30.492 42.98z" transform="translate(-93 -28) translate(93 28.193) translate(28.534 16)"/>
                    <path fill="#121514" d="M34.434 44.294L34.434 45.608 35.748 45.608 35.748 44.294 37.062 44.294 37.062 45.608 38.376 45.608 38.376 44.294 39.69 44.294 39.69 42.98 38.376 42.98 38.376 41.666 42.318 41.666 42.318 40.352 39.69 40.352 39.69 37.724 38.376 37.724 38.376 39.038 35.748 39.038 35.748 41.666 37.062 41.666 37.062 42.98 35.748 42.98 35.748 41.666 34.434 41.666 34.434 40.352 31.806 40.352 31.806 37.724 30.492 37.724 30.492 41.666 33.12 41.666 33.12 42.98 34.434 42.98 34.434 44.294" transform="translate(-93 -28) translate(93 28.193) translate(28.534 16)"/>
                    <path fill="#121514" d="M41.004 44.294L42.318 44.294 42.318 42.98 41.004 42.98zM50.203 42.98L50.203 40.352 46.261 40.352 46.261 44.294 50.203 44.294 50.203 42.98M21.293 45.608h6.57v-6.57h-6.57v6.57zm7.885 0v-7.884h-9.199v9.198h9.199v-1.314zM30.492 46.922L31.806 46.922 31.806 45.608 30.492 45.608zM33.12 46.922L34.434 46.922 34.434 45.608 33.12 45.608zM35.748 46.922L37.062 46.922 37.062 45.608 35.748 45.608zM38.376 46.922L39.69 46.922 39.69 45.608 38.376 45.608zM37.062 48.237L38.376 48.237 38.376 46.922 37.062 46.922zM48.889 49.55L47.575 49.55 47.575 48.237 46.261 48.237 46.261 49.55 44.946 49.55 44.946 50.865 43.633 50.865 43.633 52.179 44.946 52.179 44.946 53.493 46.261 53.493 46.261 50.865 47.575 50.865 47.575 53.493 51.517 53.493 51.517 54.807 52.831 54.807 52.831 50.865 51.517 50.865 51.517 52.179 48.889 52.179 48.889 50.865 51.517 50.865 51.517 49.55 52.831 49.55 52.831 48.237 48.889 48.237 48.889 49.55M29.178 52.179L29.178 50.865 27.864 50.865 27.864 49.55 29.178 49.55 29.178 50.865 30.492 50.865 30.492 49.55 31.806 49.55 31.806 50.865 30.492 50.865 30.492 52.179 33.12 52.179 33.12 53.493 34.434 53.493 34.434 50.865 33.12 50.865 33.12 48.237 23.922 48.237 23.922 49.55 26.55 49.55 26.55 50.865 23.922 50.865 23.922 52.179 25.236 52.179 25.236 53.493 26.55 53.493 26.55 52.179 29.178 52.179M21.293 52.179L22.608 52.179 22.608 49.55 21.293 49.55 21.293 48.237 19.979 48.237 19.979 60.063 21.293 60.063 21.293 57.435 22.608 57.435 22.608 56.121 21.293 56.121 21.293 54.807 22.608 54.807 22.608 53.493 21.293 53.493 21.293 52.179M22.608 53.493L23.922 53.493 23.922 52.179 22.608 52.179z" transform="translate(-93 -28) translate(93 28.193) translate(28.534 16)"/>
                    <path fill="#121514" d="M29.178 53.493L30.492 53.493 30.492 52.179 29.178 52.179zM37.062 54.807L37.062 52.179 38.376 52.179 38.376 50.865 39.69 50.865 39.69 52.179 42.318 52.179 42.318 50.865 41.004 50.865 41.004 49.55 42.318 49.55 42.318 50.865 43.633 50.865 43.633 48.237 42.318 48.237 42.318 45.608 41.004 45.608 41.004 48.237 39.69 48.237 39.69 49.55 37.062 49.55 37.062 50.865 35.748 50.865 35.748 53.493 34.434 53.493 34.434 54.807 37.062 54.807M43.633 54.807L44.946 54.807 44.946 53.493 43.633 53.493zM31.806 56.121L33.12 56.121 33.12 54.807 31.806 54.807zM50.203 56.121L47.575 56.121 47.575 54.807 46.261 54.807 46.261 57.435 47.575 57.435 47.575 58.749 48.889 58.749 48.889 61.377 51.517 61.377 51.517 58.749 50.203 58.749 50.203 57.435 51.517 57.435 51.517 58.749 52.831 58.749 52.831 56.121 51.517 56.121 51.517 54.807 50.203 54.807 50.203 56.121M23.922 58.749L25.236 58.749 25.236 56.121 23.922 56.121zM30.492 57.435L31.806 57.435 31.806 56.121 30.492 56.121 30.492 54.807 29.178 54.807 29.178 56.121 27.864 56.121 27.864 54.807 29.178 54.807 29.178 53.493 26.55 53.493 26.55 54.807 25.236 54.807 25.236 56.121 26.55 56.121 26.55 58.749 27.864 58.749 27.864 57.435 29.178 57.435 29.178 58.749 27.864 58.749 27.864 60.063 30.492 60.063 30.492 57.435" transform="translate(-93 -28) translate(93 28.193) translate(28.534 16)"/>
                    <path fill="#121514" d="M46.26 61.377v2.629h-3.942v-3.943h3.943v1.314zm0-3.942h-1.314v1.314h-1.313v-1.314h1.313V56.12h-1.313v-1.314h-1.315v-1.314H39.69v1.314h-2.628v1.314h-2.628v2.628h1.314v-1.314h3.942v2.628h-1.314v2.629h1.314v-1.315h1.314v1.315H39.69v2.628h3.943v1.313h1.313V65.32h2.629v-6.57H46.26v-1.315zM25.236 60.063L26.55 60.063 26.55 58.749 25.236 58.749z" transform="translate(-93 -28) translate(93 28.193) translate(28.534 16)"/>
                    <path fill="#121514" d="M37.062 60.063L38.376 60.063 38.376 58.749 37.062 58.749zM31.806 64.006h1.314v-1.314h-1.314v1.314zm5.256-2.629v-1.314h-2.628V58.75H33.12v-1.314h-1.314v2.628h1.314v1.314h-1.314v-1.314h-1.314v6.57h2.628V65.32h1.314v-2.628h1.314v-1.315h1.314zM21.293 69.262h6.57v-6.57h-6.57v6.57zm-1.314-6.57v7.884h9.199v-9.199h-9.199v1.315zM43.633 62.692L44.946 62.692 44.946 61.377 43.633 61.377zM51.517 62.692L52.831 62.692 52.831 61.377 51.517 61.377z" transform="translate(-93 -28) translate(93 28.193) translate(28.534 16)"/>
                    <path fill="#121514" d="M38.376 64.006L38.376 62.692 35.748 62.692 35.748 65.32 37.062 65.32 37.062 64.006 38.376 64.006M50.203 64.006L50.203 66.633 46.261 66.633 46.261 67.948 44.946 67.948 44.946 69.262 47.575 69.262 47.575 67.948 48.889 67.948 48.889 69.262 51.517 69.262 51.517 70.576 52.831 70.576 52.831 64.006 51.517 64.006 51.517 62.692 50.203 62.692 50.203 64.006M37.062 66.633L35.748 66.633 35.748 67.948 38.376 67.948 38.376 66.633 39.69 66.633 39.69 65.32 37.062 65.32 37.062 66.633M26.55 66.633L26.55 64.006 22.608 64.006 22.608 67.948 26.55 67.948 26.55 66.633M42.318 67.948L43.633 67.948 43.633 66.633 42.318 66.633zM30.492 70.576L31.806 70.576 31.806 69.262 30.492 69.262zM35.748 69.262L35.748 70.576 39.69 70.576 39.69 67.948 38.376 67.948 38.376 69.262 35.748 69.262M41.004 70.576L43.633 70.576 43.633 69.262 41.004 69.262z" transform="translate(-93 -28) translate(93 28.193) translate(28.534 16)"/>
                    <path fill="#121514" d="M47.575 70.576L48.889 70.576 48.889 69.262 47.575 69.262z" transform="translate(-93 -28) translate(93 28.193) translate(28.534 16)"/>
                    <path fill="#FF8B52" d="M15.848 42.111L14.972 42.111 14.972 32.716 23.922 32.716 23.922 33.593 15.848 33.593 15.848 42.111M57.839 42.111L56.962 42.111 56.962 33.593 48.889 33.593 48.889 32.716 57.839 32.716 57.839 42.111M23.922 75.584L14.972 75.584 14.972 67.078 15.848 67.078 15.848 74.707 23.922 74.707 23.922 75.584M57.839 75.584L48.889 75.584 48.889 74.707 56.962 74.707 56.962 67.078 57.839 67.078 57.839 75.584" transform="translate(-93 -28) translate(93 28.193) translate(28.534 16)"/>
                    <path fill="#000" d="M15 109.622L57.868 109.622 57.868 99 15 99z" transform="translate(-93 -28) translate(93 28.193) translate(28.534 16)"/>
                    <text fill="#FFF" font-family="HelveticaNeue-Medium, Helvetica Neue" font-size="4" font-weight="400" letter-spacing="-.059" transform="translate(-93 -28) translate(93 28.193) translate(28.534 16)">
                        <tspan x="30" y="106">ADD ID</tspan>
                    </text>
                </g>
                <g fill-rule="nonzero">
                    <path fill="#838383" d="M36 36H5V5h31v31zm-30.586-.414h30.172V5.414H5.414v30.172z" transform="translate(-93 -28) translate(93 28.193) translate(90 135.807)"/>
                    <path fill="#FBB694" d="M0 0H27V27H0z" transform="translate(-93 -28) translate(93 28.193) translate(90 135.807)"/>
                </g>
                <g fill="#FFF" fill-rule="nonzero" opacity=".146" transform="translate(-93 -28) translate(93 28.193) translate(0 .807)">
                    <circle cx="52.5" cy="4.5" r="4.5"/>
                    <circle cx="37.5" cy="4.5" r="4.5"/>
                    <circle cx="19.5" cy="4.5" r="4.5"/>
                    <circle cx="4.5" cy="4.5" r="4.5"/>
                    <circle cx="52.5" cy="21.5" r="4.5"/>
                    <circle cx="37.5" cy="21.5" r="4.5"/>
                    <circle cx="19.5" cy="21.5" r="4.5"/>
                    <circle cx="4.5" cy="21.5" r="4.5"/>
                    <circle cx="52.5" cy="38.5" r="4.5"/>
                    <circle cx="37.5" cy="38.5" r="4.5"/>
                    <circle cx="19.5" cy="38.5" r="4.5"/>
                    <circle cx="4.5" cy="38.5" r="4.5"/>
                    <circle cx="52.5" cy="55.5" r="4.5"/>
                    <circle cx="37.5" cy="55.5" r="4.5"/>
                    <circle cx="19.5" cy="55.5" r="4.5"/>
                    <circle cx="4.5" cy="55.5" r="4.5"/>
                </g>
            </g>
        </g>
    </g>
</svg>
